<svg width="40" height="40" viewBox="0 0 40 40" fill="none" xmlns="http://www.w3.org/2000/svg">
<path d="M30.9999 14C32.269 14.0003 33.4905 14.4832 34.4167 15.3508C35.343 16.2184 35.9047 17.4057 35.9879 18.672L35.9999 19V31C35.9996 32.2691 35.5167 33.4906 34.6492 34.4169C33.7816 35.3431 32.5943 35.9048 31.3279 35.988L30.9999 36H18.9999C17.7305 36.0002 16.5085 35.5176 15.5818 34.65C14.6552 33.7823 14.0932 32.5947 14.0099 31.328L13.9999 31V19C13.9997 17.7306 14.4824 16.5086 15.35 15.5819C16.2176 14.6553 17.4052 14.0933 18.6719 14.01L18.9999 14H30.9999ZM30.9999 16H18.9999C18.2541 16.0001 17.5351 16.2779 16.9831 16.7793C16.431 17.2807 16.0855 17.9697 16.0139 18.712L15.9999 19V31C16 31.7458 16.2778 32.4648 16.7792 33.0169C17.2806 33.5689 17.9696 33.9144 18.7119 33.986L18.9999 34H30.9999C31.7457 34 32.4647 33.7222 33.0168 33.2208C33.5688 32.7194 33.9143 32.0304 33.9859 31.288L33.9999 31V19C33.9999 18.2543 33.7221 17.5352 33.2207 16.9832C32.7193 16.4311 32.0302 16.0856 31.2879 16.014L30.9999 16ZM24.9999 18C25.234 18 25.4606 18.082 25.6404 18.2318C25.8202 18.3816 25.9418 18.5898 25.9839 18.82L25.9999 19L25.9979 24H30.9999C31.2498 23.9996 31.4908 24.0927 31.6755 24.261C31.8601 24.4294 31.9751 24.6608 31.9977 24.9097C32.0202 25.1585 31.9488 25.4068 31.7975 25.6057C31.6461 25.8045 31.4258 25.9395 31.1799 25.984L30.9999 26H25.9999V31C26.0004 31.2499 25.9073 31.4909 25.7389 31.6756C25.5705 31.8603 25.3391 31.9752 25.0903 31.9978C24.8414 32.0204 24.5931 31.9489 24.3943 31.7976C24.1954 31.6462 24.0604 31.4259 24.0159 31.18L23.9999 31L23.9979 26H18.9999C18.75 26.0005 18.509 25.9074 18.3243 25.739C18.1397 25.5707 18.0247 25.3393 18.0022 25.0904C17.9796 24.8415 18.051 24.5932 18.2024 24.3944C18.3537 24.1955 18.574 24.0606 18.8199 24.016L18.9999 24H23.9999V19C23.9999 18.7348 24.1053 18.4805 24.2928 18.2929C24.4803 18.1054 24.7347 18 24.9999 18ZM25.3239 7.39003L25.4199 7.70603L26.5699 12H24.4979L23.4879 8.22203C23.2948 7.50183 22.8404 6.87936 22.2133 6.47597C21.5862 6.07257 20.8314 5.91716 20.0959 6.04003L19.8139 6.10003L8.21991 9.21003C7.50089 9.40351 6.87951 9.85748 6.4766 10.4837C6.07368 11.1098 5.91803 11.8635 6.03991 12.598L6.09991 12.882L9.20791 24.472C9.3741 25.0925 9.73504 25.6433 10.2376 26.0433C10.7403 26.4433 11.358 26.6714 11.9999 26.694V28.694C10.9785 28.672 9.98834 28.3378 9.16244 27.7364C8.33654 27.1351 7.71451 26.2953 7.37991 25.33L7.27591 24.99L4.16991 13.4C3.84087 12.174 3.99051 10.8686 4.58848 9.74881C5.18646 8.629 6.18799 7.77857 7.38991 7.37003L7.70591 7.27603L19.2959 4.17003C20.4677 3.85592 21.7137 3.97853 22.8017 4.51501C23.8898 5.0515 24.7457 5.96526 25.2099 7.08603L25.3239 7.39003Z" fill="#0F1426"/>
</svg>
