<svg width="47" height="44" viewBox="0 0 47 44" fill="none" xmlns="http://www.w3.org/2000/svg">
<path d="M31.184 2.02217C31.2444 1.826 31.2655 1.61988 31.2461 1.41556C31.2268 1.21125 31.1674 1.01274 31.0714 0.831377C30.9753 0.650013 30.8445 0.489343 30.6863 0.358541C30.5282 0.227739 30.3458 0.129367 30.1497 0.0690406C29.9535 0.00871463 29.7474 -0.0123836 29.5431 0.00695046C29.3388 0.0262845 29.1402 0.0856722 28.9589 0.181723C28.7775 0.277773 28.6168 0.408606 28.486 0.56675C28.3552 0.724895 28.2569 0.907254 28.1965 1.10342L15.6965 41.7284C15.5747 42.1246 15.6152 42.5529 15.8092 42.9192C16.0032 43.2855 16.3348 43.5597 16.7309 43.6815C17.1271 43.8034 17.5554 43.7628 17.9217 43.5689C18.288 43.3749 18.5622 43.0433 18.684 42.6472L31.184 2.02217V2.02217ZM13.609 9.83154C13.7546 9.97668 13.87 10.1491 13.9488 10.3389C14.0275 10.5288 14.0681 10.7323 14.0681 10.9378C14.0681 11.1433 14.0275 11.3468 13.9488 11.5366C13.87 11.7265 13.7546 11.8989 13.609 12.044L3.77467 21.8753L13.609 31.7065C13.9024 31.9999 14.0673 32.3979 14.0673 32.8128C14.0673 33.2277 13.9024 33.6256 13.609 33.919C13.3156 34.2124 12.9177 34.3773 12.5028 34.3773C12.0879 34.3773 11.6899 34.2124 11.3965 33.919L0.459043 22.9815C0.313533 22.8364 0.198087 22.664 0.119316 22.4741C0.0405462 22.2843 0 22.0808 0 21.8753C0 21.6698 0.0405462 21.4663 0.119316 21.2764C0.198087 21.0866 0.313533 20.9142 0.459043 20.769L11.3965 9.83154C11.5417 9.68603 11.7141 9.57058 11.9039 9.49181C12.0938 9.41304 12.2973 9.3725 12.5028 9.3725C12.7083 9.3725 12.9118 9.41304 13.1016 9.49181C13.2915 9.57058 13.4639 9.68603 13.609 9.83154V9.83154ZM33.2715 9.83154C33.126 9.97668 33.0106 10.1491 32.9318 10.3389C32.853 10.5288 32.8125 10.7323 32.8125 10.9378C32.8125 11.1433 32.853 11.3468 32.9318 11.5366C33.0106 11.7265 33.126 11.8989 33.2715 12.044L43.1059 21.8753L33.2715 31.7065C33.1263 31.8518 33.011 32.0243 32.9324 32.2141C32.8538 32.4039 32.8133 32.6073 32.8133 32.8128C32.8133 33.0182 32.8538 33.2217 32.9324 33.4115C33.011 33.6013 33.1263 33.7738 33.2715 33.919C33.4168 34.0643 33.5893 34.1796 33.7791 34.2582C33.9689 34.3368 34.1723 34.3773 34.3778 34.3773C34.5832 34.3773 34.7867 34.3368 34.9765 34.2582C35.1663 34.1796 35.3388 34.0643 35.484 33.919L46.4215 22.9815C46.5671 22.8364 46.6825 22.664 46.7613 22.4741C46.84 22.2843 46.8806 22.0808 46.8806 21.8753C46.8806 21.6698 46.84 21.4663 46.7613 21.2764C46.6825 21.0866 46.5671 20.9142 46.4215 20.769L35.484 9.83154C35.3389 9.68603 35.1665 9.57058 34.9766 9.49181C34.7868 9.41304 34.5833 9.3725 34.3778 9.3725C34.1723 9.3725 33.9688 9.41304 33.7789 9.49181C33.5891 9.57058 33.4167 9.68603 33.2715 9.83154V9.83154Z" fill="black"/>
</svg>
