<svg width="41" height="26" viewBox="0 0 41 26" fill="none" xmlns="http://www.w3.org/2000/svg">
<path d="M13.609 2.67072C13.7543 2.52545 13.8696 2.35298 13.9482 2.16317C14.0268 1.97336 14.0673 1.76992 14.0673 1.56447C14.0673 1.35902 14.0268 1.15559 13.9482 0.965775C13.8696 0.775964 13.7543 0.603498 13.609 0.458223C13.4638 0.312949 13.2913 0.19771 13.1015 0.119088C12.9117 0.0404657 12.7082 -1.53072e-09 12.5028 0C12.2973 1.53072e-09 12.0939 0.0404657 11.9041 0.119088C11.7143 0.19771 11.5418 0.312949 11.3965 0.458223L0.459043 11.3957C0.313533 11.5409 0.198087 11.7133 0.119317 11.9031C0.0405464 12.0929 0 12.2964 0 12.502C0 12.7075 0.0405464 12.911 0.119317 13.1008C0.198087 13.2907 0.313533 13.4631 0.459043 13.6082L11.3965 24.5457C11.6899 24.8391 12.0879 25.0039 12.5028 25.0039C12.9177 25.0039 13.3156 24.8391 13.609 24.5457C13.9024 24.2523 14.0673 23.8544 14.0673 23.4395C14.0673 23.0245 13.9024 22.6266 13.609 22.3332L3.77467 12.502L13.609 2.67072V2.67072ZM27.0215 2.67072C26.7281 2.37733 26.5633 1.9794 26.5633 1.56447C26.5633 1.14955 26.7281 0.751619 27.0215 0.458223C27.3149 0.164828 27.7129 1.0709e-08 28.1278 0C28.5427 -1.0709e-08 28.9406 0.164828 29.234 0.458223L40.1715 11.3957C40.3171 11.5409 40.4325 11.7133 40.5113 11.9031C40.59 12.0929 40.6306 12.2964 40.6306 12.502C40.6306 12.7075 40.59 12.911 40.5113 13.1008C40.4325 13.2907 40.3171 13.4631 40.1715 13.6082L29.234 24.5457C28.9406 24.8391 28.5427 25.0039 28.1278 25.0039C27.7129 25.0039 27.3149 24.8391 27.0215 24.5457C26.7281 24.2523 26.5633 23.8544 26.5633 23.4395C26.5633 23.0245 26.7281 22.6266 27.0215 22.3332L36.8559 12.502L27.0215 2.67072V2.67072Z" fill="black"/>
</svg>
