<svg width="17" height="17" viewBox="0 0 17 17" fill="none" xmlns="http://www.w3.org/2000/svg">
<path d="M12.756 5.94974H4.26794C4.04283 5.94974 3.82693 6.03929 3.66775 6.19868C3.50857 6.35808 3.41914 6.57427 3.41914 6.7997C3.41914 7.02512 3.50857 7.24131 3.66775 7.40071C3.82693 7.56011 4.04283 7.64966 4.26794 7.64966H12.756C12.9811 7.64966 13.197 7.56011 13.3562 7.40071C13.5154 7.24131 13.6048 7.02512 13.6048 6.7997C13.6048 6.57427 13.5154 6.35808 13.3562 6.19868C13.197 6.03929 12.9811 5.94974 12.756 5.94974ZM9.36077 9.34959H4.26794C4.04283 9.34959 3.82693 9.43914 3.66775 9.59853C3.50857 9.75793 3.41914 9.97412 3.41914 10.1995C3.41914 10.425 3.50857 10.6412 3.66775 10.8006C3.82693 10.96 4.04283 11.0495 4.26794 11.0495H9.36077C9.58588 11.0495 9.80178 10.96 9.96096 10.8006C10.1201 10.6412 10.2096 10.425 10.2096 10.1995C10.2096 9.97412 10.1201 9.75793 9.96096 9.59853C9.80178 9.43914 9.58588 9.34959 9.36077 9.34959ZM8.51196 0C7.3973 0 6.29355 0.219849 5.26373 0.646995C4.23391 1.07414 3.2982 1.70022 2.51001 2.48948C0.918198 4.08347 0.0239247 6.24538 0.0239247 8.49962C0.0165043 10.4623 0.695152 12.3657 1.94222 13.8799L0.244614 15.5798C0.126836 15.6993 0.0470513 15.8511 0.015328 16.016C-0.0163953 16.1809 0.00136394 16.3515 0.0663648 16.5063C0.136865 16.6592 0.251153 16.7877 0.394722 16.8755C0.538291 16.9633 0.704666 17.0063 0.872728 16.9992H8.51196C10.7631 16.9992 12.9221 16.1038 14.5139 14.5098C16.1057 12.9158 17 10.7539 17 8.49962C17 6.24538 16.1057 4.08347 14.5139 2.48948C12.9221 0.895493 10.7631 0 8.51196 0ZM8.51196 15.2993H2.91835L3.70773 14.5089C3.86582 14.3496 3.95456 14.1342 3.95456 13.9096C3.95456 13.6851 3.86582 13.4697 3.70773 13.3104C2.5963 12.1987 1.90417 10.7355 1.74928 9.17007C1.59439 7.60465 1.98631 6.03389 2.85827 4.72538C3.73024 3.41688 5.02829 2.4516 6.53129 1.99399C8.03429 1.53638 9.64924 1.61476 11.101 2.21578C12.5528 2.81679 13.7515 3.90326 14.493 5.29007C15.2345 6.67689 15.4729 8.27824 15.1675 9.82132C14.8622 11.3644 14.032 12.7537 12.8184 13.7526C11.6048 14.7515 10.0829 15.2981 8.51196 15.2993Z"/>
</svg>
