<svg width="36" height="36" viewBox="0 0 36 36" fill="none" xmlns="http://www.w3.org/2000/svg">
<path d="M19.6101 18L24.4701 13.14C24.6339 12.9487 24.7195 12.7026 24.7098 12.4509C24.7 12.1993 24.5957 11.9605 24.4176 11.7824C24.2395 11.6043 24.0008 11.5 23.7491 11.4903C23.4974 11.4806 23.2514 11.5662 23.0601 11.73L18.2001 16.54L13.3101 11.65C13.1188 11.4862 12.8727 11.4006 12.621 11.4103C12.3693 11.42 12.1306 11.5243 11.9525 11.7024C11.7744 11.8805 11.6701 12.1193 11.6603 12.3709C11.6506 12.6226 11.7362 12.8687 11.9001 13.06L16.7801 18L12.0001 22.72C11.8954 22.8096 11.8104 22.92 11.7503 23.044C11.6903 23.1681 11.6566 23.3032 11.6513 23.4409C11.6459 23.5787 11.6691 23.716 11.7194 23.8443C11.7697 23.9726 11.846 24.0892 11.9434 24.1867C12.0409 24.2841 12.1574 24.3604 12.2857 24.4106C12.4141 24.4609 12.5514 24.4841 12.6891 24.4788C12.8268 24.4735 12.962 24.4397 13.086 24.3797C13.2101 24.3197 13.3204 24.2347 13.4101 24.13L18.1801 19.36L22.9201 24.1C23.1114 24.2638 23.3574 24.3494 23.6091 24.3397C23.8608 24.33 24.0995 24.2257 24.2776 24.0476C24.4557 23.8695 24.56 23.6307 24.5698 23.3791C24.5795 23.1274 24.4939 22.8813 24.3301 22.69L19.6101 18Z" fill="black"/>
<path d="M18 34C14.8355 34 11.7421 33.0616 9.11088 31.3035C6.4797 29.5454 4.42894 27.0466 3.21793 24.1229C2.00693 21.1993 1.69008 17.9823 2.30744 14.8786C2.92481 11.7749 4.44866 8.92393 6.6863 6.68629C8.92394 4.44865 11.7749 2.9248 14.8786 2.30744C17.9823 1.69007 21.1993 2.00693 24.1229 3.21793C27.0466 4.42893 29.5454 6.47969 31.3035 9.11088C33.0616 11.7421 34 14.8355 34 18C34 22.2435 32.3143 26.3131 29.3137 29.3137C26.3131 32.3143 22.2435 34 18 34ZM18 4C15.2311 4 12.5243 4.82109 10.222 6.35943C7.91974 7.89777 6.12532 10.0843 5.06569 12.6424C4.00607 15.2006 3.72882 18.0155 4.26901 20.7313C4.80921 23.447 6.14258 25.9416 8.10051 27.8995C10.0584 29.8574 12.553 31.1908 15.2687 31.731C17.9845 32.2712 20.7994 31.9939 23.3576 30.9343C25.9157 29.8747 28.1022 28.0803 29.6406 25.778C31.1789 23.4757 32 20.7689 32 18C32 14.287 30.525 10.726 27.8995 8.1005C25.274 5.475 21.713 4 18 4Z" fill="black"/>
</svg>
