<svg width="110" height="24" viewBox="0 0 110 24" fill="none" xmlns="http://www.w3.org/2000/svg">
<path d="M55.0003 15.9998C54.7666 16.0002 54.5402 15.9189 54.3603 15.7698L48.3603 10.7698C48.1561 10.6 48.0276 10.3561 48.0033 10.0917C47.9789 9.82728 48.0605 9.564 48.2303 9.35979C48.4 9.15557 48.6439 9.02715 48.9084 9.00277C49.1728 8.97839 49.4361 9.06005 49.6403 9.22979L55.0003 13.7098L60.3603 9.38979C60.4626 9.30672 60.5803 9.24469 60.7066 9.20726C60.8329 9.16983 60.9654 9.15773 61.0965 9.17167C61.2275 9.18561 61.3545 9.22531 61.4701 9.28848C61.5857 9.35166 61.6878 9.43706 61.7703 9.53979C61.8619 9.64261 61.9312 9.76324 61.974 9.89411C62.0168 10.025 62.0321 10.1633 62.019 10.3003C62.0058 10.4374 61.9645 10.5703 61.8976 10.6906C61.8307 10.811 61.7397 10.9162 61.6303 10.9998L55.6303 15.8298C55.4452 15.9553 55.2234 16.0152 55.0003 15.9998Z" fill="#B8B8B8"/>
<line x1="37" y1="12.5" x2="-4.37113e-08" y2="12.5" stroke="#B8B8B8"/>
<line x1="110" y1="12.5" x2="73" y2="12.5" stroke="#B8B8B8"/>
</svg>
