<svg width="20" height="20" viewBox="0 0 20 20" fill="none" xmlns="http://www.w3.org/2000/svg">
<path d="M8.12501 0.625C6.96509 0.626313 5.85305 1.08767 5.03286 1.90786C4.21268 2.72805 3.75132 3.84008 3.75001 5V8.11254C3.75039 8.63536 3.88156 9.14977 4.13157 9.60894L5.20403 11.5751L2.35938 13.4241C1.92219 13.7071 1.56297 14.0952 1.31456 14.553C1.06616 15.0107 0.936523 15.5234 0.937506 16.0442V19.375H12.1875V18.125H2.18751V16.0442C2.18692 15.7317 2.26471 15.4241 2.41376 15.1494C2.56281 14.8748 2.77835 14.6419 3.04067 14.4721L6.85551 11.9925L5.22895 9.01039C5.07895 8.73488 5.00025 8.42623 5.00001 8.11254V5C5.00001 4.1712 5.32925 3.37634 5.9153 2.79029C6.50135 2.20424 7.2962 1.875 8.12501 1.875C8.95381 1.875 9.74866 2.20424 10.3347 2.79029C10.9208 3.37634 11.25 4.1712 11.25 5V8.11254C11.2498 8.42623 11.1711 8.73488 11.0211 9.01039L9.39454 11.9925L12.1875 13.8079V12.3171L11.046 11.5749L12.1184 9.60871C12.3684 9.14961 12.4996 8.63528 12.5 8.11254V5C12.4987 3.84008 12.0373 2.72805 11.2171 1.90786C10.397 1.08767 9.28492 0.626313 8.12501 0.625Z"/>
<path d="M16.5625 15.625V13.125H15.3125V15.625H12.8125V16.875H15.3125V19.375H16.5625V16.875H19.0625V15.625H16.5625Z"/>
</svg>
