<svg width="17" height="17" viewBox="0 0 17 17" fill="none" xmlns="http://www.w3.org/2000/svg">
<path d="M8.50013 3.74804L7.82792 3.01104C6.25006 1.28105 3.35685 1.87805 2.31244 4.05304C1.82211 5.07604 1.71149 6.55303 2.60683 8.43802C3.46935 10.253 5.26378 12.427 8.50013 14.795C11.7365 12.427 13.53 10.253 14.3934 8.43802C15.2888 6.55203 15.1791 5.07604 14.6878 4.05304C13.6434 1.87805 10.7502 1.28005 9.17234 3.01004L8.50013 3.74804ZM8.50013 16C-5.875 5.86803 4.07406 -2.03994 8.33512 2.14304C8.39138 2.19804 8.44669 2.25504 8.50013 2.31404C8.55303 2.2551 8.60807 2.19839 8.66513 2.14404C12.9253 -2.04194 22.8753 5.86703 8.50013 16Z" fill="#000000" />
</svg>
