<svg width="110" height="24" viewBox="0 0 110 24" fill="none" xmlns="http://www.w3.org/2000/svg">
<path d="M55.0007 8.00021C55.2344 7.99976 55.4608 8.08113 55.6407 8.23021L61.6407 13.2302C61.8449 13.4 61.9733 13.6439 61.9977 13.9083C62.0221 14.1727 61.9404 14.436 61.7707 14.6402C61.601 14.8444 61.3571 14.9729 61.0926 14.9972C60.8282 15.0216 60.5649 14.94 60.3607 14.7702L55.0007 10.2902L49.6407 14.6102C49.5384 14.6933 49.4207 14.7553 49.2944 14.7927C49.168 14.8302 49.0355 14.8423 48.9045 14.8283C48.7735 14.8144 48.6465 14.7747 48.5309 14.7115C48.4152 14.6483 48.3132 14.5629 48.2307 14.4602C48.1391 14.3574 48.0698 14.2368 48.027 14.1059C47.9842 13.975 47.9689 13.8367 47.982 13.6997C47.9952 13.5626 48.0365 13.4297 48.1033 13.3094C48.1702 13.189 48.2613 13.0838 48.3707 13.0002L54.3707 8.17021C54.5558 8.0447 54.7776 7.98484 55.0007 8.00021V8.00021Z" fill="#B8B8B8"/>
<line x1="37" y1="12.5" x2="-4.37113e-08" y2="12.5" stroke="#B8B8B8"/>
<line x1="110" y1="12.5" x2="73" y2="12.5" stroke="#B8B8B8"/>
</svg>
