<svg width="68" height="68" viewBox="0 0 68 68" fill="none" xmlns="http://www.w3.org/2000/svg">
<path fill-rule="evenodd" clip-rule="evenodd" d="M18.7255 5.7035C22.9733 2.04057 28.391 0.0175887 34 0C45.4325 0 54.9228 8.5 55.9555 19.4608C62.7215 20.417 68 26.0822 68 33.0352C68 40.6682 61.6335 46.75 53.9198 46.75H42.5C41.9364 46.75 41.3959 46.5261 40.9974 46.1276C40.5989 45.7291 40.375 45.1886 40.375 44.625C40.375 44.0614 40.5989 43.5209 40.9974 43.1224C41.3959 42.7239 41.9364 42.5 42.5 42.5H53.924C59.4107 42.5 63.75 38.199 63.75 33.0352C63.75 27.8672 59.415 23.5662 53.9198 23.5662H51.7948V21.4412C51.799 12.0063 43.894 4.25 34 4.25C29.4095 4.26834 24.9766 5.92634 21.5007 8.925C18.2835 11.696 16.6005 15.0365 16.6005 17.6588V19.5627L14.7092 19.771C8.772 20.4212 4.25 25.296 4.25 31.1015C4.25 37.3363 9.4775 42.5 16.0693 42.5H25.5C26.0636 42.5 26.6041 42.7239 27.0026 43.1224C27.4011 43.5209 27.625 44.0614 27.625 44.625C27.625 45.1886 27.4011 45.7291 27.0026 46.1276C26.6041 46.5261 26.0636 46.75 25.5 46.75H16.0693C7.259 46.75 0 39.8055 0 31.1015C0 23.6087 5.3805 17.4037 12.5035 15.8312C13.1112 12.1635 15.47 8.5085 18.7255 5.7035Z" fill="#A8A8A8"/>
<path fill-rule="evenodd" clip-rule="evenodd" d="M32.4956 17.6204C32.693 17.4225 32.9275 17.2655 33.1856 17.1584C33.4438 17.0512 33.7205 16.9961 34.0001 16.9961C34.2796 16.9961 34.5563 17.0512 34.8145 17.1584C35.0727 17.2655 35.3072 17.4225 35.5046 17.6204L48.2546 30.3704C48.6536 30.7694 48.8777 31.3106 48.8777 31.8749C48.8777 32.4392 48.6536 32.9804 48.2546 33.3794C47.8555 33.7784 47.3144 34.0026 46.7501 34.0026C46.1858 34.0026 45.6446 33.7784 45.2456 33.3794L36.1251 24.2546V61.6249C36.1251 62.1885 35.9012 62.729 35.5027 63.1275C35.1041 63.526 34.5636 63.7499 34.0001 63.7499C33.4365 63.7499 32.896 63.526 32.4975 63.1275C32.0989 62.729 31.8751 62.1885 31.8751 61.6249V24.2546L22.7546 33.3794C22.3555 33.7784 21.8144 34.0026 21.2501 34.0026C20.6858 34.0026 20.1446 33.7784 19.7456 33.3794C19.3465 32.9804 19.1224 32.4392 19.1224 31.8749C19.1224 31.3106 19.3465 30.7694 19.7456 30.3704L32.4956 17.6204Z" fill="#A8A8A8"/>
</svg>
